<svg width="33" height="32" viewBox="0 0 33 32" fill="none" xmlns="http://www.w3.org/2000/svg">
<path d="M23.5701 2.66998V5.33998M16.9001 2.66998V5.33998M10.2401 2.66998V5.33998M5.57007 21.33V12C5.57007 8.22998 5.57007 6.33998 6.74007 5.16998C7.91007 3.99998 9.80007 3.99998 13.5701 3.99998H20.2401C24.0101 3.99998 25.9001 3.99998 27.0701 5.16998C28.2401 6.33998 28.2401 8.22998 28.2401 12V16C28.2401 22.29 28.2401 25.43 26.2901 27.38C24.3401 29.33 21.2001 29.33 14.9101 29.33H13.5801C9.81007 29.33 7.92007 29.33 6.75007 28.16C5.58007 26.99 5.58007 25.1 5.58007 21.33M11.5701 20H16.9001M11.5701 13.33H22.2401" stroke="currentColor" stroke-width="2" stroke-linecap="round" stroke-linejoin="round"/>
<path d="M28.2401 19.33C28.2401 21.17 26.7501 22.66 24.9101 22.66C24.2401 22.66 23.4601 22.54 22.8101 22.72C22.2301 22.87 21.7901 23.32 21.6301 23.9C21.4601 24.55 21.5701 25.33 21.5701 26C21.5701 27.84 20.0801 29.33 18.2401 29.33" stroke="currentColor" stroke-width="2" stroke-linecap="round" stroke-linejoin="round"/>
<path opacity="0.2" d="M18.2301 29.33C18.3401 29.33 18.4501 29.33 18.5601 29.31C20.2501 29.14 21.5601 27.73 21.5601 26C21.5601 25.33 21.4401 24.55 21.6101 23.9C21.7701 23.32 22.2201 22.87 22.7901 22.72C23.4401 22.55 24.2201 22.66 24.8901 22.66C26.6101 22.66 28.0301 21.35 28.2001 19.67C28.2101 19.55 28.2201 19.44 28.2201 19.33L28.2001 19.67C28.2201 18.57 28.2201 17.36 28.2201 16V12C28.2201 8.23 28.2201 6.34 27.0501 5.17C26.2901 4.41 25.2401 4.15 23.5601 4.05C22.6501 4 21.5601 4 20.2201 4H13.5601C12.2201 4 11.1301 4 10.2201 4.05C8.54006 4.15 7.49006 4.41 6.73006 5.17C5.56006 6.34 5.56006 8.23 5.56006 12V21.33C5.56006 25.1 5.56006 26.99 6.73006 28.16C7.90006 29.33 9.79006 29.33 13.5601 29.33H14.8901C16.2501 29.33 17.4701 29.33 18.5501 29.31" fill="currentColor"/>
</svg>
