<svg width="32" height="33" viewBox="0 0 32 33" fill="none" xmlns="http://www.w3.org/2000/svg">
<path d="M24 3.46997V6.13997M7.99996 3.46997V6.13997M15.99 18.13H16M15.99 23.47H16M21.32 18.13H21.33M10.67 18.13H10.68M10.67 23.47H10.68M4.66996 11.47H27.34M3.99996 11.47H28M3.32996 17.12C3.32996 11.31 3.32996 8.40997 4.99996 6.59997C6.66996 4.79997 9.35996 4.79997 14.73 4.79997H17.26C22.63 4.79997 25.32 4.79997 26.99 6.60997C28.66 8.40997 28.66 11.32 28.66 17.13V17.81C28.66 23.62 28.66 26.52 26.99 28.33C25.32 30.13 22.63 30.13 17.26 30.13H14.73C9.35996 30.13 6.66996 30.13 4.99996 28.32C3.32996 26.52 3.32996 23.61 3.32996 17.8V17.12Z" stroke="currentColor" stroke-width="2" stroke-linecap="round" stroke-linejoin="round"/>
<path opacity="0.2" d="M28.67 17.12V17.81C28.67 23.62 28.67 26.52 27 28.33C25.33 30.13 22.64 30.13 17.27 30.13H14.73C9.35996 30.13 6.66996 30.13 4.99996 28.33C3.32996 26.52 3.32996 23.62 3.32996 17.81V17.12C3.32996 14.82 3.32996 12.97 3.43996 11.47H28.56C28.67 12.97 28.67 14.82 28.67 17.12Z" fill="currentColor"/>
</svg>
