<svg width="33" height="33" viewBox="0 0 33 33" fill="none" xmlns="http://www.w3.org/2000/svg">
<path d="M3.78992 16.6C3.78992 10.63 3.78992 7.64 5.63992 5.79C7.48992 3.94 10.4799 3.94 16.4499 3.94C22.4199 3.94 25.4099 3.94 27.2599 5.79C29.1099 7.64 29.1099 10.63 29.1099 16.6C29.1099 22.57 29.1099 25.56 27.2599 27.41C25.4099 29.26 22.4199 29.26 16.4499 29.26C10.4799 29.26 7.48992 29.26 5.63992 27.41C3.78992 25.56 3.78992 22.57 3.78992 16.6Z" stroke="black" stroke-width="2" stroke-linecap="round" stroke-linejoin="round"/>
<path opacity="0.2" d="M29.1199 16.6C29.1199 22.57 29.1199 25.56 27.2699 27.41C25.4199 29.26 22.4299 29.27 16.4599 29.27C10.4899 29.27 7.49992 29.27 5.63992 27.41C3.77992 25.55 3.78992 22.57 3.78992 16.6C3.78992 15.87 3.78992 15.18 3.79992 14.53C3.81992 19.15 4.01992 21.65 5.63992 23.27C7.49992 25.12 10.4799 25.12 16.4599 25.12C22.4399 25.12 25.4099 25.12 27.2699 23.27C28.8899 21.65 29.0899 19.15 29.1099 14.53C29.1099 15.18 29.1099 15.87 29.1099 16.6H29.1199Z" fill="black"/>
<path d="M9.12988 20.46V12.73C9.12988 12.45 9.34988 12.23 9.62988 12.23H14.5099C14.7899 12.23 15.0099 12.45 15.0099 12.73V13.25C15.0099 13.53 14.7899 13.75 14.5099 13.75H11.4699C11.1899 13.75 10.9699 13.97 10.9699 14.25V15.33C10.9699 15.61 11.1899 15.83 11.4699 15.83H14.1999C14.4799 15.83 14.6999 16.05 14.6999 16.33V16.85C14.6999 17.13 14.4799 17.35 14.1999 17.35H11.4699C11.1899 17.35 10.9699 17.57 10.9699 17.85V18.93C10.9699 19.21 11.1899 19.43 11.4699 19.43H14.5199C14.7999 19.43 15.0199 19.65 15.0199 19.93V20.45C15.0199 20.73 14.7999 20.95 14.5199 20.95H9.61987C9.33987 20.95 9.11987 20.73 9.11987 20.45L9.12988 20.46Z" fill="black"/>
<path d="M23.7799 12.74V20.47C23.7799 20.75 23.5599 20.97 23.2799 20.97H22.4499C22.2899 20.97 22.1299 20.89 22.0399 20.75L18.3899 15.47H18.3299V20.46C18.3299 20.74 18.1099 20.96 17.8299 20.96H16.9799C16.6999 20.96 16.4799 20.74 16.4799 20.46V12.73C16.4799 12.45 16.6999 12.23 16.9799 12.23H17.8399C17.9999 12.23 18.1599 12.31 18.2499 12.45L21.8699 17.72H21.9499V12.73C21.9499 12.45 22.1699 12.23 22.4499 12.23H23.2899C23.5699 12.23 23.7899 12.45 23.7899 12.73L23.7799 12.74Z" fill="black"/>
</svg>
