<svg width="33" height="33" viewBox="0 0 33 33" fill="none" xmlns="http://www.w3.org/2000/svg">
<path opacity="0.2" d="M28.38 5.38999L13.26 18.61C13.26 18.61 13.25 18.52 13.25 18.48C13.22 18.08 13.03 17.72 12.71 17.47C9.39999 14.99 7.02999 12.26 5.73999 10.73C5.33999 10.26 5.20999 9.90999 5.12999 9.29999C4.85999 7.19999 4.72999 6.14999 5.33999 5.46999C5.95999 4.79999 7.03999 4.79999 9.21999 4.79999H24.59C26.66 4.79999 27.75 4.79999 28.38 5.38999Z" fill="currentColor"/>
<path d="M28.38 5.38999L13.26 18.61C13.26 18.61 13.25 18.52 13.25 18.48C13.22 18.08 13.03 17.72 12.71 17.47C9.39999 14.99 7.02999 12.26 5.73999 10.73C5.33999 10.26 5.20999 9.90999 5.12999 9.29999C4.85999 7.19999 4.72999 6.14999 5.33999 5.46999C5.95999 4.79999 7.03999 4.79999 9.21999 4.79999H24.59C26.66 4.79999 27.75 4.79999 28.38 5.38999Z" stroke="currentColor" stroke-width="2" stroke-linecap="round" stroke-linejoin="round"/>
<path d="M28.38 5.39001C28.38 5.39001 28.44 5.44002 28.47 5.47002C29.08 6.15002 28.95 7.20002 28.68 9.29002C28.6 9.91002 28.47 10.25 28.07 10.73C26.77 12.26 24.4 15 21.08 17.48C20.77 17.72 20.58 18.09 20.54 18.48C20.22 22.12 19.91 24.11 19.72 25.12C19.42 26.75 17.11 27.73 15.87 28.6C15.14 29.12 14.24 28.51 14.15 27.7C13.8 24.67 13.5 21.65 13.26 18.61" stroke="currentColor" stroke-width="2" stroke-linecap="round" stroke-linejoin="round"/>
</svg>
