<svg width="33" height="32" viewBox="0 0 33 32" fill="none" xmlns="http://www.w3.org/2000/svg">
<path d="M10.36 12C11.4646 12 12.36 11.1046 12.36 10C12.36 8.89543 11.4646 8 10.36 8C9.25542 8 8.35999 8.89543 8.35999 10C8.35999 11.1046 9.25542 12 10.36 12Z" stroke="black" stroke-width="2" stroke-linecap="round" stroke-linejoin="round"/>
<path d="M3.68994 16C3.68994 10.03 3.68994 7.04003 5.53994 5.19003C7.38994 3.34003 10.3799 3.34003 16.3499 3.34003C22.3199 3.34003 25.3099 3.34003 27.1599 5.19003C29.0099 7.04003 29.0099 10.03 29.0099 16C29.0099 21.97 29.0099 24.96 27.1599 26.81C25.3099 28.66 22.3199 28.66 16.3499 28.66C10.3799 28.66 7.38994 28.66 5.53994 26.81C3.68994 24.96 3.68994 21.97 3.68994 16Z" stroke="black" stroke-width="2" stroke-linecap="round" stroke-linejoin="round"/>
<path d="M29.0199 18.06H29.0099C19.4499 11.9 12.9299 20.93 7.12988 27.87" stroke="black" stroke-width="2" stroke-linecap="round" stroke-linejoin="round"/>
<g opacity="0.2">
<path d="M27.1699 5.19002C25.3199 3.33002 22.3299 3.33002 16.3599 3.33002C10.3899 3.33002 7.39994 3.33002 5.54994 5.19002C3.68994 7.04002 3.68994 10.03 3.68994 16C3.68994 21.97 3.68994 24.96 5.54994 26.81C5.99994 27.27 6.52994 27.61 7.14994 27.86C12.9499 20.92 19.4599 11.9 29.0199 18.06C29.0299 17.42 29.0299 16.73 29.0299 16C29.0299 10.03 29.0299 7.04002 27.1699 5.19002ZM10.3599 12C9.25994 12 8.35994 11.1 8.35994 10C8.35994 8.90002 9.25994 8.00002 10.3599 8.00002C11.4599 8.00002 12.3599 8.90002 12.3599 10C12.3599 11.1 11.4699 12 10.3599 12Z" fill="black"/>
</g>
</svg>
