<svg width="33" height="32" viewBox="0 0 33 32" fill="none" xmlns="http://www.w3.org/2000/svg">
<path d="M20.45 29.34V29.33" stroke="currentColor" stroke-width="2" stroke-linecap="round" stroke-linejoin="round"/>
<path d="M12.45 29.34V29.33" stroke="currentColor" stroke-width="2" stroke-linecap="round" stroke-linejoin="round"/>
<g opacity="0.2">
<path d="M28.4499 15.85V18.63C28.4499 23.68 28.4399 26.2 26.8799 27.77C25.6299 29.03 23.76 29.28 20.45 29.33V24C20.45 22.76 20.45 22.14 20.24 21.65C19.97 21 19.4499 20.48 18.7999 20.21C18.3099 20 17.69 20 16.45 20C15.21 20 14.5899 20 14.0999 20.21C13.4399 20.48 12.92 21 12.65 21.65C12.45 22.14 12.45 22.76 12.45 24V29.33C9.13995 29.28 7.26995 29.04 6.00995 27.77C4.44995 26.2 4.44995 23.68 4.44995 18.63V15.84C4.44995 13.27 4.44995 11.99 4.98995 10.87C5.52995 9.75998 6.53995 8.96998 8.55995 7.38998L9.89995 6.34998C13.04 3.89998 14.62 2.66998 16.45 2.66998C18.28 2.66998 19.85 3.89998 22.99 6.34998L24.33 7.38998C26.35 8.96998 27.36 9.75998 27.9 10.87C28.45 11.99 28.4499 13.27 28.4499 15.85Z" fill="currentColor"/>
</g>
<path d="M28.4499 15.84V18.62C28.4499 23.67 28.4399 26.19 26.8799 27.76C25.6299 29.02 23.76 29.27 20.45 29.32V23.99C20.45 22.75 20.45 22.13 20.24 21.64C19.97 20.99 19.4499 20.47 18.7999 20.2C18.3099 19.99 17.69 19.99 16.45 19.99C15.21 19.99 14.5899 19.99 14.0999 20.2C13.4399 20.47 12.92 20.99 12.65 21.64C12.45 22.13 12.45 22.75 12.45 23.99V29.32C9.13995 29.27 7.26995 29.03 6.00995 27.76C4.44995 26.19 4.44995 23.67 4.44995 18.62V15.83C4.44995 13.26 4.44995 11.98 4.98995 10.86C5.52995 9.74997 6.53995 8.95997 8.55995 7.37997L9.89995 6.33997C13.04 3.88997 14.62 2.65997 16.45 2.65997C18.28 2.65997 19.85 3.88997 22.99 6.33997L24.33 7.37997C26.35 8.95997 27.36 9.74997 27.9 10.86C28.45 11.98 28.4499 13.26 28.4499 15.84Z" stroke="currentColor" stroke-width="2" stroke-linecap="round" stroke-linejoin="round"/>
<path d="M12.45 29.33C13.25 29.34 14.13 29.34 15.11 29.34H17.7799C18.7599 29.34 19.65 29.34 20.45 29.33" stroke="currentColor" stroke-width="2" stroke-linecap="round" stroke-linejoin="round"/>
</svg>
