<svg width="33" height="33" viewBox="0 0 33 33" fill="none" xmlns="http://www.w3.org/2000/svg">
<path d="M4.23999 16.6C4.23999 10.63 4.23999 7.64 6.08999 5.79C7.93999 3.94 10.93 3.94 16.9 3.94C22.87 3.94 25.86 3.94 27.71 5.79C29.56 7.64 29.56 10.63 29.56 16.6C29.56 22.57 29.56 25.56 27.71 27.41C25.86 29.26 22.87 29.26 16.9 29.26C10.93 29.26 7.93999 29.26 6.08999 27.41C4.23999 25.56 4.23999 22.57 4.23999 16.6Z" stroke="black" stroke-width="2" stroke-linecap="round" stroke-linejoin="round"/>
<path opacity="0.2" d="M29.57 16.6C29.57 22.57 29.57 25.56 27.72 27.41C25.87 29.26 22.88 29.27 16.91 29.27C10.94 29.27 7.94999 29.27 6.08999 27.41C4.22999 25.55 4.23999 22.57 4.23999 16.6C4.23999 15.87 4.23999 15.18 4.24999 14.53C4.26999 19.15 4.46999 21.65 6.08999 23.27C7.94999 25.12 10.93 25.12 16.91 25.12C22.89 25.12 25.86 25.12 27.72 23.27C29.34 21.65 29.54 19.15 29.56 14.53C29.56 15.18 29.56 15.87 29.56 16.6H29.57Z" fill="black"/>
<path d="M13.38 12.74V20.47C13.38 20.75 13.16 20.97 12.88 20.97H12.03C11.75 20.97 11.53 20.75 11.53 20.47V12.74C11.53 12.46 11.75 12.24 12.03 12.24H12.88C13.16 12.24 13.38 12.46 13.38 12.74Z" fill="black"/>
<path d="M18 20.96H15.41C15.13 20.96 14.91 20.74 14.91 20.46V12.73C14.91 12.45 15.13 12.23 15.41 12.23H18.03C18.91 12.23 19.66 12.4 20.3 12.75C20.93 13.1 21.42 13.6 21.76 14.25C22.1 14.9 22.27 15.68 22.27 16.58C22.27 17.48 22.1 18.27 21.76 18.92C21.42 19.57 20.93 20.07 20.29 20.42C19.65 20.77 18.89 20.94 18 20.94V20.96ZM16.75 19.38H17.92C18.47 19.38 18.92 19.28 19.3 19.09C19.67 18.9 19.95 18.59 20.14 18.18C20.33 17.77 20.42 17.24 20.42 16.59C20.42 15.94 20.33 15.42 20.14 15.01C19.95 14.6 19.67 14.3 19.3 14.11C18.93 13.92 18.47 13.82 17.92 13.82H16.74V19.39L16.75 19.38Z" fill="black"/>
</svg>
