<svg width="33" height="33" viewBox="0 0 33 33" fill="none" xmlns="http://www.w3.org/2000/svg">
<path d="M29.69 16.8C29.69 24.16 23.72 30.13 16.36 30.13C9.00003 30.13 3.03003 24.16 3.03003 16.8C3.03003 9.43997 9.00003 3.46997 16.36 3.46997C23.72 3.46997 29.69 9.43997 29.69 16.8Z" stroke="black" stroke-width="2" stroke-linecap="round" stroke-linejoin="round"/>
<path d="M16.3601 30.13C20.7801 30.13 24.3601 24.16 24.3601 16.8C24.3601 9.43997 20.7801 3.46997 16.3601 3.46997M15.0201 10.13H15.0301M13.6901 20.13C13.6901 21.23 12.7901 22.13 11.6901 22.13C10.5901 22.13 9.69006 21.23 9.69006 20.13C9.69006 19.03 10.5901 18.13 11.6901 18.13C12.7901 18.13 13.6901 19.03 13.6901 20.13Z" stroke="black" stroke-width="2" stroke-linecap="round" stroke-linejoin="round"/>
<path opacity="0.2" d="M16.36 3.46997C9.00002 3.46997 3.02002 9.43997 3.02002 16.8C3.02002 24.16 9.00002 30.13 16.36 30.13C20.78 30.13 24.36 24.17 24.36 16.8C24.36 9.42997 20.78 3.46997 16.36 3.46997ZM11.68 22.13C10.58 22.13 9.68002 21.24 9.68002 20.13C9.68002 19.58 9.90002 19.08 10.28 18.72C10.64 18.36 11.14 18.13 11.68 18.13C12.8 18.13 13.68 19.03 13.68 20.13C13.68 21.23 12.8 22.13 11.68 22.13Z" fill="black"/>
</svg>
