<svg width="32" height="32" viewBox="0 0 32 32" fill="none" xmlns="http://www.w3.org/2000/svg">
<g clip-path="url(#clip0_974_177)">
<path d="M16 2C8.28 2 2 8.28 2 16C2 23.72 8.28 30 16 30C23.72 30 30 23.72 30 16C30 8.28 23.72 2 16 2ZM18.52 27.75V16.03C18.52 15.08 18.9 14.18 19.57 13.51C20.24 12.84 21.11 12.49 22.05 12.49C22.99 12.49 23.87 12.86 24.53 13.53C25.19 14.2 25.55 15.09 25.54 16.03C25.52 17.94 23.94 19.5 22.03 19.5C21.65 19.5 21.27 19.44 20.92 19.32C20.82 19.29 20.72 19.27 20.61 19.27C20.07 19.27 19.62 19.71 19.62 20.26C19.62 20.68 19.9 21.07 20.3 21.19C20.86 21.38 21.44 21.48 22.03 21.48C25.01 21.48 27.47 19.05 27.52 16.08C27.54 14.6 26.99 13.21 25.96 12.16C24.94 11.11 23.57 10.52 22.09 10.51H22.03C20.56 10.5 19.18 11.08 18.15 12.12C17.12 13.16 16.55 14.53 16.55 15.99V28C16.38 28.01 16.2 28.01 16 28.01C9.37 28.01 3.98 22.62 3.98 15.99C3.98 10.34 7.97 5.41 13.48 4.23V15.95C13.48 16.91 13.1 17.81 12.43 18.48C11.76 19.14 10.89 19.5 9.95 19.5C9.01 19.5 8.13 19.12 7.47 18.45C6.81 17.78 6.45 16.9 6.46 15.95C6.48 14.04 8.06 12.49 9.97 12.49C10.35 12.49 10.73 12.55 11.08 12.67C11.18 12.7 11.28 12.72 11.39 12.72C11.93 12.72 12.38 12.27 12.38 11.72C12.38 11.3 12.1 10.91 11.7 10.79C11.14 10.6 10.56 10.51 9.96 10.51C6.98 10.51 4.52 12.93 4.48 15.9C4.45 17.38 5.01 18.77 6.03 19.82C7.05 20.87 8.43 21.46 9.9 21.48H9.96C11.43 21.48 12.81 20.9 13.84 19.86C14.88 18.82 15.45 17.45 15.45 15.99V3.99C15.61 3.98 15.79 3.98 15.99 3.98C22.62 3.98 28.01 9.37 28.01 16C28.01 21.65 24.04 26.57 18.52 27.75Z" fill="black"/>
<path opacity="0" d="M15.99 3.97998C15.79 3.97998 15.61 3.97998 15.45 3.98998V15.99C15.45 17.45 14.88 18.82 13.84 19.86C12.81 20.9 11.43 21.48 9.95998 21.48H9.89998C8.42998 21.46 7.04998 20.87 6.02998 19.82C5.00998 18.77 4.44998 17.38 4.47998 15.9C4.51998 12.93 6.97998 10.51 9.95998 10.51C10.56 10.51 11.14 10.6 11.7 10.79C12.1 10.91 12.38 11.3 12.38 11.72C12.38 12.27 11.93 12.72 11.39 12.72C11.28 12.72 11.18 12.7 11.08 12.67C10.73 12.55 10.35 12.49 9.96998 12.49C8.05998 12.49 6.47998 14.04 6.45998 15.95C6.45998 16.9 6.80998 17.78 7.46998 18.45C8.12998 19.12 9.00998 19.5 9.94998 19.5C10.89 19.5 11.76 19.14 12.43 18.48C13.1 17.81 13.48 16.91 13.48 15.95V4.22998C7.96998 5.40998 3.97998 10.34 3.97998 15.99C3.97998 22.62 9.36998 28.01 16 28.01C16.2 28.01 16.38 28.01 16.55 28V15.99C16.55 14.53 17.12 13.16 18.15 12.12C19.18 11.08 20.56 10.5 22.03 10.5H22.09C23.57 10.52 24.94 11.11 25.96 12.16C26.99 13.21 27.54 14.6 27.52 16.08C27.47 19.05 25.01 21.48 22.03 21.48C21.44 21.48 20.86 21.38 20.3 21.19C19.9 21.07 19.62 20.68 19.62 20.26C19.62 19.71 20.07 19.27 20.61 19.27C20.72 19.27 20.82 19.29 20.92 19.32C21.27 19.44 21.65 19.5 22.03 19.5C23.94 19.5 25.52 17.94 25.54 16.03C25.55 15.09 25.19 14.2 24.53 13.53C23.87 12.86 22.99 12.49 22.05 12.49C21.11 12.49 20.23 12.85 19.57 13.51C18.91 14.17 18.52 15.08 18.52 16.03V27.75C24.04 26.57 28.02 21.65 28.01 16C28.01 9.36998 22.62 3.97998 15.99 3.97998ZM12.86 16C12.86 16.8 12.2 17.46 11.39 17.46C10.58 17.46 9.92998 16.8 9.92998 16C9.92998 15.2 10.59 14.53 11.39 14.53C12.19 14.53 12.86 15.19 12.86 16ZM19.15 16C19.15 15.19 19.81 14.53 20.62 14.53C21.43 14.53 22.08 15.19 22.08 16C22.08 16.81 21.42 17.46 20.62 17.46C19.82 17.46 19.15 16.8 19.15 16Z" fill="black"/>
<path d="M22.08 16C22.08 16.8 21.42 17.46 20.62 17.46C19.82 17.46 19.15 16.8 19.15 16C19.15 15.2 19.81 14.53 20.62 14.53C21.43 14.53 22.08 15.19 22.08 16Z" fill="black"/>
<path d="M12.8601 16C12.8601 16.8 12.2001 17.46 11.3901 17.46C10.5801 17.46 9.93005 16.8 9.93005 16C9.93005 15.2 10.5901 14.53 11.3901 14.53C12.1901 14.53 12.8601 15.19 12.8601 16Z" fill="black"/>
</g>
<defs>
<clipPath id="clip0_974_177">
<rect width="32" height="32" fill="white"/>
</clipPath>
</defs>
</svg>
