<svg width="32" height="32" viewBox="0 0 32 32" fill="none" xmlns="http://www.w3.org/2000/svg">
<path d="M3.15004 20.13C2.65004 17.37 2.40004 15.99 3.11004 15.05C3.16004 14.99 3.21004 14.93 3.26004 14.87C4.05004 14 5.45004 14 8.25004 14H23.75C26.55 14 27.95 14 28.74 14.87C28.79 14.93 28.84 14.99 28.89 15.05C29.6 15.98 29.35 17.37 28.85 20.13C28.13 24.1 27.77 26.09 26.41 27.31C26.32 27.39 26.22 27.47 26.12 27.55C24.68 28.67 22.67 28.67 18.64 28.67H13.34C9.31004 28.67 7.30004 28.67 5.86004 27.55C5.76004 27.47 5.67004 27.39 5.57004 27.31C4.21004 26.09 3.85004 24.1 3.13004 20.13M10.69 7.48002H21.07C22.82 7.48002 25 7.23002 26.12 8.86002C26.66 9.65002 26.66 11.81 26.66 14M16.02 7.48002L15 5.50002C14.64 4.80002 14.31 3.96002 13.58 3.58002C13.11 3.33002 12.54 3.33002 11.4 3.33002C8.73004 3.33002 7.40004 3.33002 6.51004 4.06002C5.02004 5.28002 5.37004 7.77002 5.37004 9.47002V14" stroke="currentColor" stroke-width="2" stroke-linecap="round" stroke-linejoin="round"/>
<path opacity="0.2" d="M3.15004 20.13C2.65004 17.37 2.40004 15.99 3.11004 15.05C3.16004 14.99 3.21004 14.93 3.26004 14.87C4.05004 14 5.45004 14 8.25004 14H23.75C26.55 14 27.95 14 28.74 14.87C28.79 14.93 28.84 14.99 28.89 15.05C29.6 15.98 29.35 17.37 28.85 20.13C28.13 24.1 27.77 26.09 26.41 27.31C26.32 27.39 26.22 27.47 26.12 27.55C24.68 28.67 22.67 28.67 18.64 28.67H13.34C9.31004 28.67 7.30004 28.67 5.86004 27.55C5.76004 27.47 5.67004 27.39 5.57004 27.31C4.21004 26.09 3.85004 24.1 3.13004 20.13" fill="currentColor"/>
</svg>
