<svg width="33" height="33" viewBox="0 0 33 33" fill="none" xmlns="http://www.w3.org/2000/svg">
<path d="M3.6499 8.32001L12.3399 13.24C15.7399 15.17 17.1699 15.17 20.5699 13.24L29.2599 8.32001" stroke="currentColor" stroke-width="2" stroke-linecap="round" stroke-linejoin="round"/>
<path d="M3.13993 17.99C3.22993 22.08 3.26993 24.12 4.77993 25.63C6.28993 27.14 8.38993 27.2 12.5899 27.3C15.1799 27.37 17.7399 27.37 20.3299 27.3C24.5299 27.19 26.6299 27.14 28.1399 25.63C29.6499 24.12 29.6899 22.07 29.7799 17.99C29.8099 16.68 29.8099 15.37 29.7799 14.05C29.6899 9.96 29.6499 7.92 28.1399 6.41C26.6299 4.9 24.5299 4.84 20.3299 4.74C17.7499 4.67 15.1699 4.67 12.5899 4.74C8.38993 4.85 6.28993 4.9 4.77993 6.41C3.26993 7.92 3.22993 9.97 3.13993 14.05C3.10993 15.36 3.10993 16.67 3.13993 17.99Z" stroke="currentColor" stroke-width="2" stroke-linecap="round" stroke-linejoin="round"/>
<g opacity="0.2">
<path d="M29.25 8.32001C29.67 9.66001 29.7 11.43 29.76 14.05C29.79 15.37 29.79 16.67 29.76 17.99C29.67 22.07 29.63 24.12 28.12 25.63C26.61 27.15 24.51 27.2 20.31 27.3C17.73 27.37 15.17 27.37 12.58 27.3C8.37999 27.2 6.27999 27.15 4.76999 25.63C3.26999 24.12 3.21999 22.07 3.12999 17.99C3.10999 16.67 3.10999 15.36 3.12999 14.05C3.18999 11.43 3.22999 9.66001 3.63999 8.32001L12.33 13.24C15.73 15.17 17.16 15.17 20.56 13.24L29.25 8.32001Z" fill="currentColor"/>
</g>
</svg>
