<svg width="33" height="33" viewBox="0 0 33 33" fill="none" xmlns="http://www.w3.org/2000/svg">
<path d="M3.02002 16.0201H10.52M10.22 6.68004H5.69003C4.43003 6.68004 3.80003 6.68005 3.41003 7.07005C3.02003 7.46005 3.02002 8.09005 3.02002 9.35005V22.68C3.02002 23.94 3.02003 24.5701 3.41003 24.9601C3.80003 25.3501 4.43003 25.3501 5.69003 25.3501H10.22C12.87 25.3501 15.02 23.26 15.02 20.68C15.02 18.1 12.87 16.01 10.22 16.01C12.87 16.01 15.02 13.92 15.02 11.34C15.02 8.76004 12.87 6.67004 10.22 6.67004M27.02 9.35005H21.69M19.03 18.68C19.03 15.96 21.42 13.3501 24.36 13.3501C27.3 13.3501 29.69 15.96 29.69 18.68H19.02V20.01C19.02 22.96 21.41 25.3401 24.35 25.3501C26.26 25.3501 28.02 24.33 28.97 22.68" stroke="black" stroke-width="2" stroke-linecap="round" stroke-linejoin="round"/>
<path opacity="0.2" d="M15.02 11.3501C15.02 13.9301 12.87 16.0201 10.22 16.0201H3.02002V9.35007C3.02002 8.10007 3.02003 7.47006 3.41003 7.08006C3.80003 6.69006 4.43003 6.69006 5.69003 6.69006H10.22C12.87 6.69006 15.02 8.78007 15.02 11.3501Z" fill="black"/>
<path opacity="0.2" d="M15.02 20.69C15.02 23.26 12.87 25.35 10.22 25.35H5.69003C4.43003 25.35 3.80003 25.35 3.41003 24.96C3.02003 24.57 3.02002 23.94 3.02002 22.69V16.02H10.22C12.87 16.02 15.02 18.11 15.02 20.69Z" fill="black"/>
<path opacity="0.2" d="M29.69 18.69H19.02C19.02 15.96 21.41 13.35 24.35 13.35C27.29 13.35 29.69 15.96 29.69 18.69Z" fill="black"/>
</svg>
