<svg width="33" height="33" viewBox="0 0 33 33" fill="none" xmlns="http://www.w3.org/2000/svg">
<path d="M13.69 28.03C9.12003 29.57 5.31002 28.03 3.02002 23.27" stroke="black" stroke-width="2" stroke-linecap="round" stroke-linejoin="round"/>
<path d="M13.69 29.93V25.61C13.69 24.81 13.94 24.12 14.33 23.49C14.6 23.06 14.42 22.45 13.93 22.32C9.87002 21.2 7.03003 19.41 7.03003 13.46C7.03003 11.91 7.54003 10.46 8.43003 9.19001C8.65003 8.88001 8.76003 8.72 8.79003 8.58C8.82003 8.44 8.77003 8.25 8.68003 7.88C8.30003 6.37 8.33003 4.76 8.89003 3.31C8.89003 3.31 10.06 2.93 12.72 4.59C13.33 4.97 13.63 5.16 13.9 5.2C14.17 5.24 14.53 5.15 15.24 4.97C16.26 4.72 17.31 4.59 18.36 4.6C19.41 4.6 20.46 4.72 21.48 4.97C22.19 5.15 22.55 5.24 22.82 5.2C23.09 5.16 23.39 4.97 24 4.59C26.66 2.93 27.83 3.31 27.83 3.31C28.4 4.76 28.42 6.37 28.04 7.88C27.95 8.25 27.9 8.44 27.93 8.58C27.96 8.72 28.07 8.88001 28.29 9.19001C29.18 10.46 29.69 11.91 29.69 13.46C29.69 19.41 26.84 21.2 22.79 22.32C22.3 22.45 22.11 23.07 22.39 23.49C22.78 24.12 23.03 24.81 23.03 25.61V29.93" stroke="black" stroke-width="2" stroke-linecap="round" stroke-linejoin="round"/>
<g opacity="0.2">
<path d="M13.69 27.26V25.62C13.69 24.82 13.94 24.13 14.33 23.5C14.6 23.07 14.42 22.46 13.93 22.33C9.87002 21.21 7.03003 19.42 7.03003 13.47C7.03003 11.92 7.54003 10.47 8.43003 9.20001C8.65003 8.89001 8.76003 8.73001 8.79003 8.59001C8.82003 8.45001 8.77003 8.26001 8.68003 7.89001C8.30003 6.38001 8.33003 4.77001 8.89003 3.32001C8.89003 3.32001 10.06 2.94001 12.72 4.60001C13.33 4.98001 13.63 5.17001 13.9 5.21001C14.17 5.25001 14.53 5.16001 15.24 4.98001C16.26 4.73001 17.31 4.60001 18.36 4.61001C19.41 4.61001 20.46 4.73001 21.48 4.98001C22.19 5.16001 22.55 5.25001 22.82 5.21001C23.09 5.17001 23.39 4.98001 24 4.60001C26.66 2.94001 27.83 3.32001 27.83 3.32001C28.4 4.77001 28.42 6.38001 28.04 7.89001C27.95 8.26001 27.9 8.45001 27.93 8.59001C27.96 8.73001 28.07 8.89001 28.29 9.20001C29.18 10.47 29.69 11.92 29.69 13.47C29.69 19.42 26.84 21.21 22.79 22.33C22.3 22.46 22.11 23.08 22.39 23.5C22.78 24.13 23.03 24.82 23.03 25.62V27.26" fill="black"/>
</g>
</svg>
