<svg width="32" height="33" viewBox="0 0 32 33" fill="none" xmlns="http://www.w3.org/2000/svg">
<path d="M26.82 5.21004C24.96 3.35004 21.97 3.35004 16 3.35004C10.03 3.35004 7.04997 3.35004 5.18997 5.21004C3.33997 7.06004 3.33997 10.05 3.33997 16.02C3.33997 21.99 3.33997 24.97 5.18997 26.83C7.04997 28.68 10.03 28.68 16 28.68C21.97 28.68 24.96 28.68 26.82 26.83C28.67 24.97 28.67 21.99 28.67 16.02C28.67 10.05 28.67 7.06004 26.82 5.21004ZM16 22.02C12.69 22.02 9.99997 19.33 9.99997 16.02C9.99997 14.36 10.67 12.86 11.76 11.77C12.85 10.69 14.35 10.02 16 10.02C19.32 10.02 22 12.7 22 16.02C22 19.34 19.32 22.02 16 22.02Z" stroke="black" stroke-width="2" stroke-linecap="round" stroke-linejoin="round"/>
<path d="M23.3399 8.68005H23.3199" stroke="black" stroke-width="2" stroke-linecap="round" stroke-linejoin="round"/>
<path opacity="0.2" d="M26.81 5.21004C24.95 3.35004 21.96 3.35004 15.99 3.35004C10.02 3.35004 7.03996 3.35004 5.17996 5.21004C3.32996 7.06004 3.32996 10.05 3.32996 16.02C3.32996 21.99 3.32996 24.97 5.17996 26.83C7.03996 28.68 10.02 28.68 15.99 28.68C21.96 28.68 24.95 28.68 26.81 26.83C28.66 24.97 28.66 21.99 28.66 16.02C28.66 10.05 28.66 7.06004 26.81 5.21004ZM15.99 22.02C12.68 22.02 9.98996 19.33 9.98996 16.02C9.98996 14.36 10.66 12.86 11.75 11.77C12.84 10.69 14.34 10.02 15.99 10.02C19.31 10.02 21.99 12.7 21.99 16.02C21.99 19.34 19.31 22.02 15.99 22.02Z" fill="black"/>
</svg>
