<svg width="32" height="33" viewBox="0 0 32 33" fill="none" xmlns="http://www.w3.org/2000/svg">
<path opacity="0.2" d="M22.6701 16.5999C22.6701 20.2799 19.6901 23.2699 16.0001 23.2699C12.3101 23.2699 9.33008 20.2899 9.33008 16.5999C9.33008 12.9099 12.3101 9.92993 16.0001 9.92993C19.6901 9.92993 22.6701 12.9099 22.6701 16.5999Z" fill="black"/>
<path d="M16 3.26996V5.26996M16 27.93V29.93M25.43 26.03L24.02 24.62M7.99004 8.58996L6.57004 7.17996M29.33 16.6H27.33M4.67004 16.6H2.67004M25.43 7.16996L24.02 8.57996M7.99004 24.62L6.58004 26.03M22.67 16.6C22.67 20.28 19.69 23.27 16 23.27C12.31 23.27 9.33004 20.29 9.33004 16.6C9.33004 12.91 12.31 9.92996 16 9.92996C19.69 9.92996 22.67 12.91 22.67 16.6Z" stroke="black" stroke-width="2" stroke-linecap="round" stroke-linejoin="round"/>
</svg>
